<svg xmlns="http://www.w3.org/2000/svg" width="174" height="22" viewBox="0 0 174 22">
    <g fill="none" fill-rule="evenodd">
        <path fill="#E81111" d="M0 0h174v22H0z"/>
        <path fill="#FFF" d="M0 22V0h174v22H0zm.6-.7h172.699V.701H.6V21.3zm82.8-10.2V11c0-.8-.3-1.9-1.1-2.8-.9-.9-2.1-1.2-2.9-1.2h-.1c-.9 0-2.1.3-2.9 1.2-.8.9-1.1 2-1.1 2.8v.1c0 .8.3 1.9 1.1 2.8.9.9 2.1 1.2 2.9 1.2h.1c.9 0 2.1-.3 2.9-1.2.8-.9 1.1-2 1.1-2.8zm.2-3.8c1.5 1.3 1.8 2.7 1.8 3.7v.1c0 1-.3 2.4-1.8 3.7-1.6 1.3-3.6 1.3-4.2 1.3h-.1c-.6 0-2.7 0-4.2-1.3s-1.8-2.7-1.8-3.7V11c0-1 .3-2.4 1.8-3.7C76.7 6 78.7 6 79.3 6h.1c.6 0 2.7 0 4.2 1.3zM68 6.2c-.8.3-.9 1.1-.9 1.5v6.6c0 .4.1 1.2.9 1.5.1 0 .1.1 0 .1h-3.5c-.1 0-.1-.1 0-.1.8-.3.9-1.1.9-1.5v-3.2h-6.5v3.2c0 .4.1 1.2.9 1.5.1 0 .1.1 0 .1h-3.5c-.1 0-.1-.1 0-.1.8-.3.9-1.1.9-1.5V7.7c0-.4-.1-1.2-.9-1.5-.1 0-.1-.1 0-.1h3.5c.1 0 .1.1 0 .1-.8.3-.9 1.1-.9 1.5v2.5h6.5V7.7c0-.4-.1-1.2-.9-1.5-.1 0-.1-.1 0-.1H68c.1 0 .1.1 0 .1zm-34.2 4.5c.6.2 1.2.6 1.6 1.2.4.7.4 1.9-.1 2.6-.5.8-1.3 1.3-2.1 1.5-1.2.3-2.4.2-3.6-.1-1-.3-1.9-.5-2.5-.1-.2.1-.2.1-.2-.1s-.1-2.1-.1-2.4c0-.1.1 0 .1 0 .4.4 1.5 1.2 2.7 1.6 1 .3 1.9.4 3.1.1.5-.1 1-.5 1.1-.8.2-.4.2-1.1-.1-1.4-.2-.2-.5-.6-2.8-.9-2.5-.4-3.1-1-3.6-1.7-.6-.9-.5-1.9-.1-2.6.4-.8 1.1-1.2 1.7-1.4.8-.3 1.9-.4 3.2-.2 1.3.2 1.7.5 2.3.3.2-.1.3-.1.3.1.1.3.2 2 .2 2.1.1.2 0 .2-.1.1-.3-.2-1.1-1.1-2.4-1.5-1-.3-1.8-.2-2.3-.1-.7.1-1.1.5-1.3.8-.4.6-.3 1.2.1 1.6.4.4 1.2.6 2 .7.8.2 2.2.3 2.9.6zm14.8 4c.8-.3 1.5-.8 2-1.3.1-.1.2-.1 0 .1-.1.4-.2 1.4-.3 1.7 0 .1-.1.1-.2.2-.2.1-.8.4-1.4.5-1.3.3-2.9.3-4-.1s-2.4-1.1-3.3-2.5c-.9-1.4-.7-3.5.1-4.7 1.1-1.6 2.2-2.1 3.3-2.4 1.2-.3 2.5-.3 3.6-.1.5.1 1.4.4 1.6.5.1 0 .2.1.2.2 0 0 .2 1.4.2 1.6 0 .2-.1.2-.2.1-.5-.6-1.3-1.1-1.9-1.3-1-.3-2.2-.3-3 .1-.7.3-1.4.6-2 1.6-.9 1.5-.6 3.2-.2 3.9.3.4.7 1.3 2 1.9 1.2.6 2.5.4 3.5 0zm104.6-8.5c-.8.3-.9 1.1-.9 1.5v6.6c0 .4.1 1.2.9 1.5.1 0 .1.1 0 .1h-3.5c-.1 0-.1-.1 0-.1.8-.3.9-1.1.9-1.5V7.7c0-.4-.1-1.2-.9-1.5-.1 0-.1-.1 0-.1h3.5c.1 0 .1.1 0 .1zm-10.5-.1c.5 0 1.2-.1 1.8-.3.1 0 .2 0-.1.1-.2.3-.9 1.2-1.1 1.5-.1.1-.1 0-.2 0s-.3-.3-1.1-.3h-2.1v7.2c0 .4.1 1.2.9 1.5.1 0 .1.1 0 .1h-3.5c-.1 0-.1-.1 0-.1.8-.3.9-1.1.9-1.5V7.1h-2.5c-.5 0-.8 0-1.4.3-.2.1-.2 0-.1-.1l1.2-1.6c.1-.1.1 0 .2 0 .1.1.5.4 1.1.4h6zM99 14.2c.1-.1.1 0 .2.1-.1.2-.7 1.7-.8 1.9-.1.1-.1.1-.2.1-.4-.2-.9-.3-1.4-.3h-5.9c-.1 0-.1-.1 0-.1.8-.3.9-1.1.9-1.5V7.8c0-.4-.1-1.2-.9-1.5-.1 0-.1-.1 0-.1h3.6c.1 0 .1.1 0 .1-.9.3-1 .9-1 1.4V15h3.4c1.2 0 2-.7 2.1-.8zm69.3-.8c.1-.1.2-.1 0 .1-.1.4-.2 1.4-.3 1.7 0 .1-.1.1-.2.2-.2.1-.8.4-1.4.5-1.3.3-2.9.3-4-.1s-2.4-1.1-3.3-2.5c-.9-1.4-.7-3.5.1-4.7 1.1-1.6 2.2-2.1 3.3-2.4 1.2-.3 2.5-.3 3.6-.1.5.1 1.4.4 1.6.5.1 0 .2.1.2.2 0 0 .2 1.4.2 1.6 0 .2-.1.2-.2.1-.5-.6-1.3-1.1-1.9-1.3-1-.3-2.2-.3-3 .1-.7.3-1.4.6-2 1.6-.9 1.5-.6 3.2-.2 3.9.3.4.7 1.3 2 1.9 1.2.6 2.5.4 3.5 0 .8-.3 1.5-.8 2-1.3zm-62-1.1h5.1l-2.5-4.7-2.6 4.7zm8.5 2.4c.2.5.6.9 1 1 .1.1.1.2 0 .3h-3c-.1 0-.1-.1 0-.1s.5-.2.2-.8c-.2-.4-.9-1.7-.9-1.7h-6.2s-.7 1.4-.9 1.7c-.1.2-.1.6.2.8.1 0 .1.1 0 .1H103c-.1 0-.2-.1 0-.2s.6-.3 1.1-1.2c.5-.9 4.1-7.2 4.2-7.5.1-.3.2-.6-.1-.9-.1-.1 0-.1 0-.1h1.7s4.6 8.1 4.9 8.6zm12.8-4c.6.2 1.1.7 1.6 1.2.4.7.4 1.9-.1 2.6-.5.8-1.3 1.3-2.1 1.5-1.2.3-2.4.2-3.6-.1-1-.3-1.9-.5-2.5-.1-.1.1-.2.1-.2-.1s-.1-2.1-.1-2.4c0-.1.1 0 .1 0 .4.4 1.5 1.2 2.7 1.6 1 .3 1.9.4 3.1.1.5-.1 1-.6 1.1-.8.2-.4.2-1.1-.1-1.4-.2-.2-.5-.6-2.8-.9-2.5-.4-3.1-1-3.6-1.7-.6-.9-.5-1.9-.1-2.6.4-.8 1.1-1.2 1.7-1.4.8-.3 1.9-.4 3.2-.2 1.3.2 1.7.5 2.3.3.2-.1.3-.1.3.1.1.3.2 2 .2 2.1.1.2 0 .2-.1.1-.3-.2-1.1-1.1-2.4-1.5-1-.3-1.7-.2-2.3-.1-.7.1-1.1.5-1.3.8-.4.6-.3 1.2.1 1.6.4.4 1.2.6 2 .7.8.2 2.2.3 2.9.6zM6.401 14.27c-.152-.06-.34-.154-.294-.482.047-.33 1.035-7.046 1.07-7.284.018-.118-.003-.315.072-.371.072-.056.177-.008.426.038.273.05.74.103 1.676.103.936 0 1.862.146 2.493.681.527.447 1.417 1.379 1.417 2.121v7.122c0 .192-.196.192-.392 0-.197-.194-1.23-1.248-2.2-1.566-.623-.204-1.132-.266-2.21-.266s-1.81 0-2.058-.096zm14.134 0c-.248.096-.98.096-2.058.096-1.078 0-1.587.062-2.21.266-.97.318-2.003 1.373-2.2 1.566-.196.192-.391.192-.391 0V9.076c0-.742.889-1.674 1.416-2.12.63-.537 1.557-.682 2.494-.682.935 0 1.403-.053 1.675-.103.249-.046.355-.094.426-.038.075.056.054.253.072.372.035.237 1.023 6.954 1.07 7.282.047.329-.142.423-.294.482z"/>
    </g>
</svg>
